<?xml version="1.0" encoding="UTF-8"?>
<svg id="KO-_Drop_Shadow" data-name="KO- Drop Shadow" xmlns="http://www.w3.org/2000/svg" xmlns:xlink="http://www.w3.org/1999/xlink" viewBox="0 0 1080 400">
  <defs>
    <style>
      .cls-1 {
        fill: #fff;
      }

      .cls-2 {
        fill: none;
        filter: url(#drop-shadow-1);
      }
    </style>
    <filter id="drop-shadow-1" filterUnits="userSpaceOnUse">
      <feOffset dx="0" dy="12"/>
      <feGaussianBlur result="blur" stdDeviation="0"/>
      <feFlood flood-color="#ff9a64" flood-opacity=".75"/>
      <feComposite in2="blur" operator="in"/>
      <feComposite in="SourceGraphic"/>
    </filter>
  </defs>
  <g class="cls-2">
    <path class="cls-1" d="m5.32,164.11C5.32,76.79,64.93,10.89,146.78,10.89c34.42,0,44.49,9.23,63.81,9.23,13.01,0,15.11-5.88,23.93-5.88,7.56,0,10.49,3.36,11.76,12.17,2.52,18.47,7.55,52.05,8.82,60.87,1.26,11.34-5.04,16.37-12.17,16.37-27.71,0-24.77-67.17-86.9-67.17-51.21,0-83.54,49.53-83.54,104.95,0,71.36,39.46,116.7,102.85,116.7,51.63,0,63.81-39.88,79.76-28.54,15.11,11.33-12.17,81.86-102.85,81.86-83.12,0-146.93-54.99-146.93-147.34Z"/>
    <path class="cls-1" d="m265.15,303.9c0-8.82,9.24-7.98,9.24-29.81V54.97c0-21.83-9.24-20.15-9.24-27.71,0-2.94,2.1-5.46,5.46-6.3,5.46-.84,41.14-7.56,52.89-9.65,10.91-1.68,14.69,2.52,14.69,9.65v253.13c0,21.83,9.23,20.99,9.23,29.81,0,2.94-2.1,4.2-5.46,4.2h-71.36c-2.94,0-5.46-1.26-5.46-4.2Z"/>
    <path class="cls-1" d="m355.82,303.9c0-8.82,9.24-7.98,9.24-29.81v-117.96c0-21.83-9.24-20.15-9.24-28.13,0-2.94,2.1-5.04,5.46-5.88,5.04-1.26,40.72-7.56,52.89-9.66,10.91-2.1,14.69,2.1,14.69,9.66v151.96c0,21.83,9.23,20.99,9.23,29.81,0,2.94-2.1,4.2-5.46,4.2h-71.36c-2.94,0-5.46-1.26-5.46-4.2ZM399.06,16.35c20.99,0,38.2,15.95,38.2,36.1s-17.21,36.1-38.2,36.1-38.62-16.37-38.62-36.1,17.21-36.1,38.62-36.1Z"/>
    <path class="cls-1" d="m585.01,384.49c0-8.82,9.66-7.56,9.66-29.38v-75.56c-12.18,18.47-30.65,31.9-58.77,31.9-50.37,0-89.41-40.72-89.41-99.91s37.78-99.49,87.74-99.49c41.56,0,55.41,21.41,76.4,21.41s24.35-21.41,37.36-21.41c8.4,0,10.08,7.14,10.08,24.35v218.71c0,21.83,9.65,20.57,9.65,29.38,0,2.94-2.52,4.62-5.45,4.62h-71.78c-2.94,0-5.46-1.68-5.46-4.62Zm-30.64-107.88c24.35,0,40.3-27.71,40.3-66.75s-18.47-66.32-41.14-66.32-41.98,26.03-41.98,66.32,18.05,66.75,42.82,66.75Z"/>
    <path class="cls-1" d="m683.23,235.89v-79.76c0-21.83-9.23-20.15-9.23-28.13,0-2.94,2.1-5.04,5.45-5.88,5.04-1.26,40.72-7.56,52.48-9.66,10.91-2.1,15.11,2.1,15.11,9.66v110.4c0,23.93,9.65,44.08,31.48,44.08,18.05,0,31.9-16.79,31.9-42.4v-78.08c0-21.83-9.65-20.15-9.65-28.13,0-2.94,2.1-5.04,5.45-5.88,5.45-1.26,41.14-7.56,52.89-9.66,10.91-2.1,14.69,2.1,14.69,9.66v125.09c0,26.03,9.23,16.37,13.85,23.93,5.88,9.65-4.62,39.88-36.52,39.88-18.89,0-31.48-8.82-37.36-26.44-10.49,13.85-28.12,26.87-57.93,26.87-36.94,0-72.63-22.25-72.63-75.56Z"/>
    <path class="cls-1" d="m893.54,213.22c0-57.93,41.56-101.17,98.65-101.17s80.6,39.04,80.6,76.82c0,13.43-6.3,19.31-23.51,19.31h-97.39c7.55,32.74,32.33,54.99,69.26,54.99,32.32,0,39.46-20.57,49.11-14.69,15.95,8.82-11.75,62.97-75.56,62.97-59.19,0-101.17-39.88-101.17-98.23Zm120.06-34.84c1.26-29.38-10.08-45.34-26.87-45.34-17.63,0-36.52,20.57-36.94,51.63l63.81-6.3Z"/>
  </g>
</svg>